<?xml version="1.0" encoding="UTF-8" standalone="no"?>
<svg
   version="1.0"
   width="1280.000000pt"
   height="640.000000pt"
   viewBox="0 0 1280.000000 640.000000"
   preserveAspectRatio="xMidYMid meet"
   id="svg1"
   sodipodi:docname="grupo.svg"
   inkscape:version="1.3 (0e150ed6c4, 2023-07-21)"
   xml:space="preserve"
   xmlns:inkscape="http://www.inkscape.org/namespaces/inkscape"
   xmlns:sodipodi="http://sodipodi.sourceforge.net/DTD/sodipodi-0.dtd"
   xmlns="http://www.w3.org/2000/svg"
   xmlns:svg="http://www.w3.org/2000/svg"><defs
     id="defs1" /><sodipodi:namedview
     id="namedview1"
     pagecolor="#ffffff"
     bordercolor="#000000"
     borderopacity="0.25"
     inkscape:showpageshadow="2"
     inkscape:pageopacity="0.0"
     inkscape:pagecheckerboard="0"
     inkscape:deskcolor="#d1d1d1"
     inkscape:document-units="pt"
     inkscape:zoom="0.49428421"
     inkscape:cx="751.59188"
     inkscape:cy="423.84522"
     inkscape:window-width="1920"
     inkscape:window-height="1009"
     inkscape:window-x="1358"
     inkscape:window-y="-8"
     inkscape:window-maximized="1"
     inkscape:current-layer="svg1" /><metadata
     id="metadata1">&#10;Created by potrace 1.15, written by Peter Selinger 2001-2017&#10;</metadata><g
     transform="matrix(0.1,0,0,-0.1,0.34424445,625.83106)"
     fill="#000000"
     stroke="none"
     id="g6"
     style="fill:#ff3c5f;fill-opacity:1"><path
       d="m 6275,5974 c -16,-2 -66,-9 -110,-15 -565,-75 -1073,-474 -1289,-1013 -143,-355 -155,-753 -35,-1126 151,-468 546,-870 1016,-1033 782,-273 1649,80 2012,818 119,243 171,466 171,733 -1,430 -156,818 -454,1129 -251,263 -564,428 -926,489 -86,15 -330,26 -385,18 z"
       id="path1"
       style="fill:#ff3c5f;fill-opacity:1" /><path
       d="m 2285,4769 c -254,-30 -504,-140 -694,-304 -451,-391 -576,-1031 -305,-1561 62,-123 143,-230 248,-332 110,-106 192,-166 311,-225 375,-189 803,-188 1176,4 427,219 692,655 692,1139 0,344 -121,645 -359,890 -196,202 -432,330 -692,375 -111,20 -279,26 -377,14 z"
       id="path2"
       style="fill:#ff3c5f;fill-opacity:1" /><path
       d="m 10225,4769 c -182,-20 -378,-89 -542,-190 -118,-73 -311,-263 -388,-381 -198,-308 -259,-672 -171,-1021 62,-242 180,-444 362,-618 95,-90 175,-148 292,-208 425,-218 915,-189 1316,77 94,62 249,213 319,309 181,252 268,572 237,870 -28,278 -131,521 -305,722 -218,251 -512,404 -843,440 -115,12 -161,12 -277,0 z"
       id="path3"
       style="fill:#ff3c5f;fill-opacity:1" /><path
       d="M 5606,2554 C 5066,2481 4540,2196 4089,1733 3826,1463 3619,1162 3469,830 3411,700 3338,509 3325,452 l -7,-32 h 3082 3082 l -7,33 c -11,49 -87,250 -139,366 -215,482 -584,939 -1016,1258 -357,263 -745,427 -1135,478 -158,21 -1426,20 -1579,-1 z"
       id="path4"
       style="fill:#ff3c5f;fill-opacity:1" /><path
       d="M 1755,2084 C 1571,2051 1415,1998 1234,1907 700,1639 249,1115 49,531 33,484 20,440 20,433 20,422 293,420 1566,422 l 1546,3 47,145 c 135,407 361,814 628,1128 74,87 78,74 -42,145 -195,115 -430,203 -632,237 -106,18 -161,20 -696,19 -458,-1 -599,-4 -662,-15 z"
       id="path5"
       style="fill:#ff3c5f;fill-opacity:1" /><path
       d="m 9679,2080 c -204,-37 -471,-141 -657,-257 -65,-40 -72,-47 -60,-63 7,-9 53,-66 101,-126 253,-314 449,-674 578,-1064 l 47,-145 1546,-3 c 1273,-2 1546,0 1546,11 0,7 -13,51 -29,98 -206,601 -670,1129 -1224,1394 -149,71 -245,106 -397,143 l -105,26 -620,2 c -571,3 -628,1 -726,-16 z"
       id="path6"
       style="fill:#ff3c5f;fill-opacity:1" /></g></svg>
