<?xml version="1.0" encoding="UTF-8" standalone="no"?>
<svg
   version="1.0"
   width="1280.000000pt"
   height="640.000000pt"
   viewBox="0 0 1280.000000 640.000000"
   preserveAspectRatio="xMidYMid meet"
   id="svg1"
   sodipodi:docname="infinito.svg"
   inkscape:version="1.3 (0e150ed6c4, 2023-07-21)"
   xmlns:inkscape="http://www.inkscape.org/namespaces/inkscape"
   xmlns:sodipodi="http://sodipodi.sourceforge.net/DTD/sodipodi-0.dtd"
   xmlns="http://www.w3.org/2000/svg"
   xmlns:svg="http://www.w3.org/2000/svg">
  <defs
     id="defs1" />
  <sodipodi:namedview
     id="namedview1"
     pagecolor="#ffffff"
     bordercolor="#000000"
     borderopacity="0.25"
     inkscape:showpageshadow="2"
     inkscape:pageopacity="0.0"
     inkscape:pagecheckerboard="0"
     inkscape:deskcolor="#d1d1d1"
     inkscape:document-units="pt"
     inkscape:zoom="0.69902344"
     inkscape:cx="853.33333"
     inkscape:cy="427.02431"
     inkscape:window-width="1920"
     inkscape:window-height="1009"
     inkscape:window-x="1358"
     inkscape:window-y="-8"
     inkscape:window-maximized="1"
     inkscape:current-layer="svg1" />
  <metadata
     id="metadata1">&#10;Created by potrace 1.15, written by Peter Selinger 2001-2017&#10;</metadata>
  <g
     transform="matrix(0.1,0,0,-0.1,-3.2187762,640)"
     fill="#000000"
     stroke="none"
     id="g1"
     style="fill:#ff3c5f;fill-opacity:1">
    <path
       d="m 9638,6075 c -772,-93 -1504,-467 -2317,-1184 -198,-174 -334,-303 -657,-624 -230,-229 -264,-258 -281,-249 -11,6 -100,93 -199,194 C 5040,5383 4298,5876 3439,6034 2879,6137 2298,6072 1770,5848 885,5472 237,4681 56,3755 15,3548 5,3437 5,3190 5,2798 59,2471 181,2125 519,1161 1326,498 2345,346 c 634,-95 1337,26 1957,335 243,121 448,250 703,441 321,239 556,450 1061,950 176,175 327,318 334,318 8,0 77,-66 154,-146 172,-179 592,-584 770,-743 820,-731 1442,-1055 2226,-1163 58,-8 194,-12 350,-12 213,0 279,4 400,23 650,100 1205,379 1659,832 457,457 742,1045 823,1699 19,155 16,563 -6,720 -78,561 -275,1067 -568,1457 -95,128 -294,332 -425,435 -364,290 -837,486 -1378,570 -172,26 -594,34 -767,13 z M 3307,4876 c 336,-71 676,-233 1010,-481 119,-88 297,-234 413,-339 146,-133 880,-850 880,-860 0,-16 -640,-649 -795,-788 -492,-438 -947,-715 -1375,-839 -202,-58 -321,-74 -565,-74 -190,0 -235,3 -334,23 -590,119 -1022,504 -1210,1077 -160,489 -130,953 90,1385 252,496 706,824 1266,915 63,10 146,13 293,10 172,-3 225,-8 327,-29 z m 6863,19 c 327,-46 605,-171 841,-378 439,-384 649,-1063 517,-1677 -134,-625 -615,-1131 -1229,-1295 -148,-39 -279,-55 -454,-55 -310,0 -559,62 -870,215 -327,160 -642,391 -1037,761 -248,232 -743,719 -746,734 -3,16 466,495 668,681 682,630 1221,933 1800,1014 130,18 382,18 510,0 z"
       id="path1"
       style="fill:#ff3c5f;fill-opacity:1" />
  </g>
</svg>
