<?xml version="1.0" encoding="UTF-8" standalone="no"?>
<!-- Created with Inkscape (http://www.inkscape.org/) -->

<svg
   width="210mm"
   height="297mm"
   viewBox="0 0 210 297"
   version="1.1"
   id="svg1"
   xml:space="preserve"
   sodipodi:docname="logocolorido.svg"
   inkscape:version="1.3 (0e150ed6c4, 2023-07-21)"
   xmlns:inkscape="http://www.inkscape.org/namespaces/inkscape"
   xmlns:sodipodi="http://sodipodi.sourceforge.net/DTD/sodipodi-0.dtd"
   xmlns="http://www.w3.org/2000/svg"
   xmlns:svg="http://www.w3.org/2000/svg"><sodipodi:namedview
     id="namedview1"
     pagecolor="#ffffff"
     bordercolor="#000000"
     borderopacity="0.25"
     inkscape:showpageshadow="2"
     inkscape:pageopacity="0.0"
     inkscape:pagecheckerboard="0"
     inkscape:deskcolor="#d1d1d1"
     inkscape:document-units="mm"
     inkscape:zoom="2.8970539"
     inkscape:cx="430.60987"
     inkscape:cy="725.73728"
     inkscape:window-width="1920"
     inkscape:window-height="1009"
     inkscape:window-x="1358"
     inkscape:window-y="-8"
     inkscape:window-maximized="1"
     inkscape:current-layer="layer1" /><defs
     id="defs1" /><g
     inkscape:label="Camada 1"
     inkscape:groupmode="layer"
     id="layer1"><path
       style="fill:#fefefe;fill-opacity:1"
       d="m 114.45593,198.3238 c -0.32452,-0.0627 -0.8417,-0.43342 -1.14927,-0.82386 -0.46635,-0.59198 -0.53083,-0.92467 -0.38822,-2.00294 0.22041,-1.66663 1.16036,-3.50496 2.51069,-4.91039 0.7944,-0.82682 1.0716,-1.33289 1.0703,-1.95409 l -0.002,-0.83831 -0.50983,0.77339 c -0.72258,1.09612 -1.13642,1.25334 -2.26798,0.86158 -0.65802,-0.22781 -1.13676,-0.62842 -1.43104,-1.1975 l -0.44223,-0.85516 -0.44883,0.9412 c -0.89612,1.8792 -2.71242,1.84815 -3.57329,-0.0611 -0.34817,-0.77217 -0.44759,-1.78092 -0.44927,-4.55868 l -0.002,-3.56708 -0.9951,-0.16205 c -0.54731,-0.0891 -1.06525,-0.2322 -1.15097,-0.31792 -0.35463,-0.35463 0.25899,-0.72024 1.2088,-0.72024 h 1.01586 l 0.186,-1.85208 c 0.189,-1.88204 0.29576,-2.01163 1.32291,-1.60585 0.45215,0.17862 0.52917,0.45512 0.52917,1.89964 v 1.69058 l 1.43466,0.13229 c 2.00053,0.18447 2.07649,0.74364 0.11494,0.84617 l -1.52805,0.0799 -0.22497,1.05834 c -0.33304,1.56675 -0.13371,6.64935 0.27685,7.0591 0.82658,0.82494 1.91615,-1.2219 2.47422,-4.64804 0.33792,-2.07452 0.83736,-3.20247 1.65534,-3.73843 0.63247,-0.41441 0.75558,-0.41331 1.94033,0.0174 1.73598,0.63105 2.28187,1.29731 2.08282,2.54207 -0.13106,0.81961 -0.0717,1.0081 0.36066,1.14533 0.43104,0.1368 0.4753,0.27535 0.26485,0.82889 -0.13898,0.36554 -0.25269,1.53596 -0.25269,2.60092 0,1.71377 0.0608,1.95219 0.52916,2.07467 0.29105,0.0761 0.52917,0.26859 0.52917,0.42773 0,0.15915 -0.23812,0.28936 -0.52917,0.28936 -0.49772,0 -0.52925,0.17688 -0.53064,2.97656 -0.003,5.22395 -0.60815,6.15259 -3.63127,5.56865 z m 1.37717,-1.74168 c 0.49882,-1.19386 0.84654,-6.00978 0.43392,-6.00978 -0.40899,0 -1.823,2.25726 -2.14892,3.43045 -0.35472,1.27683 -0.32901,2.74746 0.0547,3.13121 0.58558,0.58557 1.28168,0.35418 1.66026,-0.55188 z m -0.6148,-8.9202 c 0.72363,-0.9709 1.40688,-5.14729 1.002,-6.12476 -0.58142,-1.40366 -2.0682,-0.67536 -2.61088,1.27893 -0.3632,1.30795 -0.3637,4.4657 -8.1e-4,5.14377 0.35703,0.6671 0.97579,0.55258 1.60969,-0.29794 z m 11.99209,1.74732 c -0.44009,-0.19174 -0.95285,-0.68374 -1.13947,-1.09332 l -0.33931,-0.7447 -0.49592,0.81548 c -0.58601,0.96362 -1.35473,1.27224 -2.13233,0.85608 -0.90803,-0.48596 -1.31052,-1.86272 -1.31052,-4.48278 0,-2.15851 -0.0479,-2.38975 -0.49508,-2.38975 -0.39846,0 -0.52949,0.2711 -0.6714,1.38906 -0.20199,1.59118 -0.64356,3.10883 -0.90456,3.10892 -0.31712,1.2e-4 -0.0133,-6.73147 0.31332,-6.94132 0.58254,-0.37432 0.92953,-0.19639 1.01255,0.51918 0.0729,0.62811 0.23561,0.74741 1.25537,0.92029 1.52817,0.25908 1.74235,0.49801 1.37946,1.53897 -0.42553,1.22068 -0.62904,3.96859 -0.36206,4.88886 0.5835,2.01135 1.75614,0.20949 2.32064,-3.56586 0.44778,-2.99479 0.8529,-4.01358 1.8578,-4.67202 0.57561,-0.37715 0.82173,-0.39218 1.78044,-0.10868 1.56036,0.4614 2.00474,0.95324 2.20152,2.4366 0.0942,0.7104 0.26756,1.3511 0.38516,1.42378 0.11761,0.0727 0.1505,0.93322 0.0731,1.91229 -0.1043,1.3191 -0.0416,1.91119 0.2422,2.28615 1.02965,1.36053 2.04697,-1.03364 2.04697,-4.81733 0,-2.46064 0.009,-2.49493 0.59531,-2.33773 0.32743,0.0877 0.68045,0.16116 0.7845,0.16315 0.10405,0.002 0.22311,1.224 0.26458,2.71559 l 0.0754,2.71198 0.50365,-1.67417 c 0.57734,-1.91914 1.34622,-2.65908 2.25674,-2.17179 0.47855,0.25612 0.54831,0.54782 0.55818,2.33391 l 0.0113,2.04121 0.96689,-2.57968 c 0.88378,-2.35795 1.02629,-2.57969 1.65795,-2.57969 0.38008,0 0.90891,0.1593 1.17518,0.354 0.44065,0.32221 0.45428,0.47839 0.15173,1.73953 -0.37577,1.56639 -0.25208,4.11576 0.22271,4.59056 0.5054,0.5054 1.17793,-0.10092 1.62383,-1.46394 0.48833,-1.49275 0.79375,-1.83524 0.79375,-0.89013 0,1.55403 -1.44433,3.87206 -2.41262,3.87206 -0.25756,0 -0.79869,-0.28419 -1.20251,-0.63154 -0.67303,-0.57892 -0.74591,-0.82623 -0.87465,-2.96792 -0.13376,-2.22544 -0.1575,-2.2991 -0.49988,-1.55127 -0.52266,1.14159 -1.08959,3.07823 -1.0929,3.73336 -0.004,0.88291 -1.01348,1.1627 -1.70375,0.47243 -0.30335,-0.30335 -0.41578,-0.94723 -0.41578,-2.38125 0,-3.28123 -0.62553,-2.19264 -1.18914,2.06942 -0.13568,1.02604 -0.26356,1.25677 -0.69655,1.25677 -0.90976,0 -1.55389,-0.50715 -1.55389,-1.22345 v -0.67567 l -0.81405,0.68498 c -0.44773,0.37674 -0.98892,0.68498 -1.20265,0.68498 -0.47481,0 -1.68353,-1.16872 -1.69782,-1.64162 -0.006,-0.18852 -0.17437,0.0343 -0.37484,0.4951 -0.42608,0.97947 -1.32515,1.9447 -1.79762,1.92991 -0.1819,-0.006 -0.6908,-0.16724 -1.13089,-0.35899 z m 1.8333,-1.2843 c 0.61316,-0.95088 1.32764,-5.6957 0.9744,-6.47098 -0.4694,-1.03021 -1.6129,-0.74079 -2.25276,0.57017 -0.6013,1.23196 -0.86911,4.68388 -0.44755,5.76852 0.34888,0.89762 1.19078,0.96216 1.72591,0.13229 z m -40.318484,0.92563 c -0.506423,-0.25443 -1.202581,-0.87933 -1.547019,-1.38865 -0.544125,-0.8046 -0.609621,-1.15158 -0.49944,-2.64583 0.158636,-2.15141 1.083473,-4.64287 1.929126,-5.19697 0.392208,-0.25698 0.890673,-0.35404 1.295904,-0.25234 0.998581,0.25063 2.464307,1.66959 2.634026,2.54998 0.08298,0.43046 0.220098,1.14089 0.3047,1.57872 0.23556,1.21907 0.544227,0.85659 2.179385,-2.55937 0.600788,-1.25509 1.398496,-1.79314 2.316793,-1.56266 0.975539,0.24485 2.439673,1.67296 2.607455,2.54331 0.08298,0.43046 0.220104,1.14089 0.304704,1.57872 0.19194,0.99334 0.50163,0.8153 1.21253,-0.69708 0.57905,-1.23187 1.62904,-1.96955 3.32406,-2.33537 1.285,-0.27732 1.92417,0.0213 1.92417,0.89891 0,0.91005 -0.66584,1.57122 -1.12246,1.1146 -0.39841,-0.3984 -1.33145,-0.39237 -1.73504,0.0112 -0.17462,0.17463 -0.3175,0.64298 -0.3175,1.04078 0,0.56904 0.33854,0.98925 1.5875,1.97049 1.61491,1.26874 1.9921,2.09148 1.24365,2.71265 -0.98395,0.8166 -4.44075,0.52836 -4.79699,-0.39999 -0.30947,-0.80646 0.28965,-0.9769 1.28077,-0.36435 0.98522,0.60889 2.02169,0.64568 2.20854,0.0784 0.0603,-0.1832 -0.34216,-0.71898 -0.89444,-1.19062 -0.55228,-0.47165 -1.34376,-1.1831 -1.75886,-1.58102 l -0.75472,-0.72349 -0.62738,0.72349 c -0.34505,0.39792 -0.75984,1.24403 -0.92175,1.88026 -0.162049,0.6368 -0.651314,1.51371 -1.088454,1.95085 -0.675714,0.67572 -0.934464,0.77131 -1.735835,0.64126 -1.898708,-0.30812 -3.264264,-1.86504 -3.266044,-3.72375 -9.55e-4,-0.99767 -0.01824,-1.01758 -0.502848,-0.57902 -0.276023,0.2498 -0.638584,0.99716 -0.805692,1.66081 -0.350943,1.39372 -1.546585,2.72972 -2.442409,2.72912 -0.338615,-2.2e-4 -1.03001,-0.20858 -1.536432,-0.46302 z m 2.16246,-1.32251 c 0.218716,-0.25466 0.4743,-0.67852 0.567964,-0.94192 0.153088,-0.4305 0.05325,-0.46135 -0.987856,-0.30522 -0.695919,0.10436 -1.38143,0.0542 -1.717582,-0.12572 -0.47388,-0.25362 -0.559427,-0.22606 -0.559427,0.18021 0,1.40196 1.824263,2.20871 2.696901,1.19265 z m 7.408334,0 c 0.218716,-0.25466 0.474299,-0.67852 0.567964,-0.94192 0.153087,-0.4305 0.05325,-0.46135 -0.987857,-0.30522 -0.695919,0.10436 -1.38143,0.0542 -1.717581,-0.12572 -0.47388,-0.25362 -0.559428,-0.22606 -0.559428,0.18021 0,1.40196 1.824264,2.20871 2.696902,1.19265 z m -7.084166,-2.60799 c 0.50701,-0.19456 0.544792,-1.89506 0.07285,-3.27898 -0.24615,-0.72182 -0.459347,-0.92605 -0.966714,-0.92605 -1.369303,0 -2.449043,2.94766 -1.446849,3.94986 0.421784,0.42178 1.57805,0.54783 2.340713,0.25517 z m 7.408333,0 c 0.507011,-0.19456 0.544792,-1.89506 0.07285,-3.27898 -0.246151,-0.72182 -0.459348,-0.92605 -0.966715,-0.92605 -1.369302,0 -2.449043,2.94766 -1.446848,3.94986 0.421784,0.42178 1.57805,0.54783 2.340711,0.25517 z m -20.035029,3.46016 -1.271252,-0.67859 0.08063,-5.67326 c 0.09149,-6.43725 0.297219,-5.98682 -2.168332,-4.74725 -1.70144,0.85541 -2.162884,1.45359 -2.065553,2.67761 0.0693,0.87156 0.0038,1.02089 -0.447988,1.02089 -0.391494,0 -0.552676,-0.20651 -0.619528,-0.79375 -0.269979,-2.37155 2.743944,-4.25837 7.874166,-4.9295 2.889662,-0.37802 4.256116,-0.0546 5.498195,1.30146 1.098788,1.1996 1.131308,2.19141 0.123936,3.77988 -0.744613,1.17413 -2.243393,2.62628 -2.710611,2.62628 -0.557238,0 -0.163403,0.42786 0.804288,0.87376 0.80783,0.37225 1.133087,0.73394 1.482297,1.64833 0.406474,1.06434 0.409803,1.22879 0.0364,1.79867 -0.574267,0.87644 -2.104071,1.53688 -3.857066,1.66515 -1.223369,0.0895 -1.714646,-0.0119 -2.759582,-0.56968 z m 4.074564,-1.25835 c 0.493455,-0.33253 0.938217,-0.81764 0.98836,-1.07801 0.188469,-0.97865 -1.649338,-2.28612 -3.213403,-2.28612 -0.869211,0 -0.90933,0.0446 -1.065558,1.1844 -0.260516,1.90068 0.227885,2.78435 1.538892,2.78435 0.469984,0 1.258253,-0.27208 1.751709,-0.60462 z m -0.560533,-5.44716 c 1.347685,-0.90511 2.652013,-2.74287 2.652013,-3.73661 0,-1.26534 -0.834693,-1.70996 -3.400834,-1.81153 l -2.287708,-0.0906 0.07458,2.86868 c 0.04102,1.57777 0.126576,3.01751 0.190133,3.19941 0.201004,0.57527 1.59819,0.35883 2.771821,-0.42939 z"
       id="path1-7" /></g></svg>
