<?xml version="1.0" encoding="UTF-8" standalone="no"?>
<svg
   version="1.0"
   width="1280.000000pt"
   height="640.000000pt"
   viewBox="0 0 1280.000000 640.000000"
   preserveAspectRatio="xMidYMid meet"
   id="svg1"
   sodipodi:docname="pc.svg"
   inkscape:version="1.3 (0e150ed6c4, 2023-07-21)"
   xml:space="preserve"
   xmlns:inkscape="http://www.inkscape.org/namespaces/inkscape"
   xmlns:sodipodi="http://sodipodi.sourceforge.net/DTD/sodipodi-0.dtd"
   xmlns="http://www.w3.org/2000/svg"
   xmlns:svg="http://www.w3.org/2000/svg"><defs
     id="defs1" /><sodipodi:namedview
     id="namedview1"
     pagecolor="#ffffff"
     bordercolor="#000000"
     borderopacity="0.25"
     inkscape:showpageshadow="2"
     inkscape:pageopacity="0.0"
     inkscape:pagecheckerboard="0"
     inkscape:deskcolor="#d1d1d1"
     inkscape:document-units="pt"
     inkscape:zoom="0.49428421"
     inkscape:cx="751.59188"
     inkscape:cy="423.84522"
     inkscape:window-width="1920"
     inkscape:window-height="1009"
     inkscape:window-x="1358"
     inkscape:window-y="-8"
     inkscape:window-maximized="1"
     inkscape:current-layer="svg1" /><metadata
     id="metadata1">&#10;Created by potrace 1.15, written by Peter Selinger 2001-2017&#10;</metadata><g
     transform="matrix(0.09663492,0,0,-0.08635021,11.713928,768.12834)"
     fill="#000000"
     stroke="none"
     id="g53"
     style="fill:#ff3c5f;fill-opacity:1"><path
       d="m 3355,9123 c -44,-23 -84,-63 -108,-108 l -22,-40 V 6884 4793 l 30,-48 c 17,-27 50,-63 74,-80 l 43,-30 3076,-3 c 2218,-2 3088,0 3115,8 51,15 115,75 138,128 18,42 19,117 19,2120 0,1988 -1,2079 -19,2117 -20,44 -87,110 -127,125 -16,6 -1172,10 -3107,10 -2788,-1 -3085,-2 -3112,-17 z m 6048,-437 c 14,-13 28,-39 32,-57 3,-19 4,-827 3,-1797 l -3,-1764 -33,-29 -32,-29 H 6456 3542 l -31,29 -31,29 v 1792 1792 l 29,29 29,29 h 2920 2919 z"
       id="path1-3"
       style="fill:#ff3c5f;fill-opacity:1" /><path
       d="m 6985,8443 c -363,-1 -1127,-7 -1699,-12 -1162,-11 -1059,-3 -1089,-88 -64,-180 -42,-568 36,-641 23,-22 27,-22 813,-32 434,-5 1025,-12 1314,-15 289,-2 719,-7 955,-11 l 430,-5 195,126 c 107,70 199,130 203,135 5,4 2,19 -7,32 -26,40 -40,176 -27,280 6,50 17,101 25,113 15,22 14,23 -114,74 l -128,51 -124,-2 c -68,-2 -420,-4 -783,-5 z M 4660,8050 v -230 h -160 -160 v 230 230 h 160 160 z"
       id="path2-4"
       style="fill:#ff3c5f;fill-opacity:1" /><path
       d="m 8175,7702 c -16,-10 -88,-49 -160,-86 -71,-38 -159,-84 -194,-104 l -63,-35 -1167,12 c -641,6 -1244,11 -1338,11 -187,0 -186,0 -161,-54 l 11,-26 1316,-2 1316,-3 3,-22 3,-23 H 6429 5118 l 5,-28 c 3,-16 9,-63 13,-105 l 7,-77 1306,-2 1306,-3 3,-22 3,-23 -1312,-2 -1313,-3 2,-60 c 1,-33 -4,-93 -11,-132 l -13,-73 1310,-2 1311,-3 3,-22 3,-23 H 6423 l -1318,-1 -27,-24 c -16,-13 -28,-29 -28,-35 0,-7 420,-10 1366,-10 h 1365 l 167,143 c 92,78 192,163 222,189 65,55 83,97 101,233 18,141 -1,342 -39,408 -19,32 -19,32 -57,9 z"
       id="path3-0"
       style="fill:#ff3c5f;fill-opacity:1" /><path
       d="m 4895,6934 c -78,-16 -322,-59 -613,-108 -149,-25 -198,-37 -213,-52 -30,-30 -44,-126 -29,-197 19,-93 32,-102 190,-121 74,-8 227,-27 340,-41 113,-13 318,-38 455,-55 138,-16 286,-34 330,-40 190,-24 850,-104 1325,-160 91,-11 276,-33 412,-50 136,-16 262,-30 280,-30 18,-1 354,79 746,177 l 714,177 16,31 c 22,40 23,178 2,220 l -15,29 -390,79 -390,78 -145,-150 -145,-150 -340,-11 c -797,-25 -1232,-37 -1265,-33 -241,24 -1076,116 -1142,124 -49,7 -88,15 -88,19 0,6 46,200 61,259 5,20 -15,21 -96,5 z"
       id="path4-0"
       style="fill:#ff3c5f;fill-opacity:1" /><path
       d="m 4658,6193 c -21,-45 -23,-59 -23,-223 1,-153 4,-182 22,-230 l 21,-55 194,-103 c 194,-104 253,-135 606,-321 172,-91 198,-102 230,-97 112,18 767,124 1082,176 541,88 1184,194 1535,251 546,90 678,114 681,124 2,6 -7,17 -20,27 -18,13 -32,15 -67,8 -24,-5 -89,-16 -144,-24 -327,-51 -1227,-192 -1310,-206 -66,-11 -586,-93 -730,-115 -49,-8 -151,-23 -225,-35 -74,-12 -173,-28 -220,-35 -47,-7 -191,-30 -320,-50 -129,-20 -239,-37 -245,-38 -5,-1 -9,5 -8,13 6,37 74,405 79,426 7,26 -17,22 499,84 182,22 364,44 405,50 41,5 150,19 243,30 92,11 242,29 335,40 92,11 201,25 242,30 41,5 149,19 240,30 163,20 508,62 954,116 l 228,28 24,35 c 13,19 20,39 16,43 -4,4 -65,20 -135,34 l -127,27 -102,-22 c -57,-12 -209,-44 -338,-71 -129,-27 -291,-60 -360,-75 -263,-55 -429,-86 -545,-101 -120,-16 -120,-16 -390,15 -148,17 -328,38 -400,47 -71,8 -166,19 -210,24 -44,5 -181,21 -305,35 -124,14 -281,32 -350,40 -69,8 -168,20 -220,25 -52,6 -131,15 -175,20 -295,35 -609,70 -624,70 -13,0 -27,-16 -43,-47 z"
       id="path5-3"
       style="fill:#ff3c5f;fill-opacity:1" /><path
       d="m 8535,5949 c -115,-15 -302,-39 -415,-53 -113,-14 -293,-38 -400,-51 -107,-14 -316,-41 -465,-60 -148,-19 -373,-48 -500,-65 -126,-16 -356,-46 -510,-66 -154,-19 -283,-39 -287,-42 -10,-10 -53,-250 -47,-257 3,-3 368,51 810,120 442,69 833,130 869,135 36,6 106,16 155,24 217,34 366,58 450,71 206,31 541,86 557,91 15,4 16,9 7,26 -10,18 -9,104 2,137 2,7 0,15 -6,16 -5,1 -104,-10 -220,-26 z"
       id="path6-0"
       style="fill:#ff3c5f;fill-opacity:1" /><path
       d="m 3331,4369 c -10,-24 -90,-137 -177,-251 -166,-216 -258,-336 -738,-963 -160,-209 -433,-567 -608,-795 l -318,-414 v -91 c 0,-180 30,-273 118,-367 55,-59 113,-95 184,-114 77,-20 9236,-21 9313,0 71,18 105,38 169,96 83,76 136,201 136,320 0,17 -98,166 -292,447 -161,232 -400,577 -530,765 -227,328 -545,788 -774,1118 -59,85 -117,175 -128,201 l -21,47 -670,6 c -717,6 -2898,22 -4602,33 l -1042,6 z m 4850,-269 h 1405 l 330,-471 c 181,-260 330,-478 332,-485 3,-12 -590,-14 -3767,-14 -2074,0 -3771,2 -3771,5 0,3 64,103 143,223 78,119 221,338 317,486 l 175,269 1715,-7 c 943,-3 2348,-6 3121,-6 z M 7336,2735 c 29,-126 51,-232 49,-234 -2,-2 -404,0 -893,5 l -889,9 17,75 c 10,41 32,141 50,222 l 33,148 191,3 c 105,1 461,2 790,2 h 599 z M 5689,2403 c -5,-21 -9,-48 -9,-61 v -22 l 372,2 372,3 -3,58 -2,57 h 51 52 l -4,-57 -3,-58 369,-3 368,-2 -7,46 c -3,26 -9,53 -12,60 -4,11 7,14 45,14 h 49 l 12,-57 c 6,-31 11,-63 11,-71 0,-12 -123,-13 -877,-7 -483,4 -879,8 -880,9 -2,1 2,30 8,64 l 11,62 h 43 43 z m -2006,-249 77,-7 v -35 -35 l -177,8 c -98,4 -180,8 -181,10 -2,2 4,17 14,34 18,31 19,31 105,31 47,0 120,-3 162,-6 z m 5822,-26 c 18,-63 33,-58 -154,-58 h -171 v 40 40 h 159 c 157,0 160,0 166,-22 z"
       id="path7"
       style="fill:#ff3c5f;fill-opacity:1" /><path
       d="m 3636,4024 c -24,-23 -38,-53 -31,-64 4,-6 67,-10 151,-10 142,0 145,1 170,25 14,14 24,33 22,43 -3,15 -20,17 -150,20 -123,2 -149,0 -162,-14 z"
       id="path8"
       style="fill:#ff3c5f;fill-opacity:1" /><path
       d="m 3982,4033 c -17,-7 -44,-61 -37,-73 3,-6 21,-10 38,-11 l 32,-1 -38,-10 c -31,-8 -42,-19 -62,-59 -23,-45 -24,-49 -7,-58 20,-12 20,-12 -30,-16 -40,-4 -61,9 -29,18 22,5 75,92 66,107 -4,6 -67,10 -165,10 -177,0 -176,1 -216,-77 -14,-27 -16,-37 -6,-40 21,-8 13,-20 -15,-26 -20,-4 -36,-19 -55,-55 -33,-60 -34,-62 -8,-62 11,0 20,-4 20,-10 0,-5 -13,-10 -30,-10 -25,0 -35,-9 -65,-55 -19,-31 -35,-60 -35,-65 0,-7 115,-9 328,-8 l 327,3 30,57 c 16,31 26,60 21,65 -4,4 -40,8 -79,8 -40,1 -97,3 -127,5 l -55,3 72,6 c 39,3 136,4 215,2 137,-3 141,-4 88,-15 -53,-11 -56,-13 -83,-64 -15,-30 -25,-58 -21,-63 3,-5 85,-9 183,-9 192,0 189,-1 209,55 5,17 13,38 17,47 5,12 -1,21 -22,32 -28,15 -27,15 35,16 59,0 87,-15 40,-22 -23,-3 -50,-46 -64,-102 l -6,-26 h 180 c 201,0 193,-3 216,75 14,45 14,47 -5,52 -10,3 -17,9 -14,13 7,11 78,11 95,-1 12,-7 11,-9 -6,-9 -12,0 -26,-6 -31,-12 -15,-19 -42,-106 -35,-112 3,-3 85,-6 183,-6 200,0 190,-4 204,78 6,39 5,44 -14,49 -34,9 -14,22 32,21 51,0 71,-10 37,-18 -20,-5 -27,-16 -37,-55 -7,-28 -11,-56 -8,-62 6,-18 348,-18 363,0 6,7 12,34 14,61 3,46 1,50 -22,57 -28,8 -22,11 35,14 22,2 47,-1 55,-6 12,-7 10,-8 -7,-9 -28,0 -40,-22 -45,-80 l -3,-45 h 185 185 l 5,53 c 6,57 0,67 -40,75 -14,2 25,5 87,6 61,0 123,5 138,11 24,9 26,14 23,62 l -3,53 -85,3 c -83,3 -84,4 -52,17 30,13 32,17 32,65 0,38 -4,50 -15,50 -8,0 -15,5 -15,10 0,6 15,10 34,10 19,0 38,-4 41,-10 3,-5 0,-10 -8,-10 -10,0 -17,-16 -22,-47 -10,-69 -1,-73 173,-73 79,0 152,4 162,10 14,8 18,19 15,52 -2,24 -4,46 -4,50 -1,3 -9,9 -18,11 -10,3 2,5 27,6 35,0 41,-2 28,-10 -26,-15 -25,-95 1,-109 21,-11 288,-14 315,-4 11,4 16,19 16,48 0,48 -7,62 -35,69 -11,2 7,5 40,5 41,0 52,-2 35,-7 -22,-7 -25,-12 -23,-50 3,-70 7,-71 173,-71 82,0 155,3 164,6 19,7 20,25 6,76 -8,29 -16,38 -38,41 -15,2 2,4 38,5 41,0 56,-3 40,-7 -14,-4 -25,-12 -24,-19 1,-7 2,-25 3,-41 2,-56 17,-61 185,-61 97,0 156,4 163,11 8,8 8,22 1,47 -12,46 -23,60 -51,65 -12,2 7,5 43,6 84,2 96,9 84,53 l -10,33 -149,3 c -85,1 -153,-2 -158,-7 -16,-16 2,-60 31,-75 27,-15 26,-15 -27,-16 -52,0 -53,0 -32,18 17,14 20,23 13,47 l -8,30 -157,3 -157,3 v -28 c 0,-36 9,-50 40,-62 21,-8 14,-10 -35,-10 -50,0 -56,2 -37,11 22,11 28,40 16,72 -5,14 -29,16 -159,16 -114,0 -154,-3 -158,-12 -3,-10 -7,-10 -19,0 -12,9 -55,12 -164,10 l -149,-3 -3,-33 c -2,-22 2,-34 12,-38 22,-8 10,-24 -19,-24 -29,0 -41,16 -19,24 10,4 14,16 12,38 -3,31 -5,33 -58,41 -57,9 -245,6 -254,-4 -3,-3 -9,-20 -12,-37 -6,-27 -3,-33 17,-41 20,-8 16,-10 -26,-10 -40,0 -45,2 -27,9 17,7 22,17 22,44 0,43 -10,46 -157,46 -126,0 -159,-9 -166,-42 -4,-21 -4,-20 -6,4 -1,35 -30,41 -190,36 -131,-3 -141,-7 -141,-60 0,-17 6,-28 18,-31 9,-3 -5,-5 -33,-6 -46,-1 -48,0 -25,12 28,14 40,64 18,78 -7,5 -72,9 -144,9 -135,0 -149,-4 -173,-45 -11,-19 -11,-18 -5,4 4,15 1,27 -7,32 -8,5 -76,9 -151,9 -125,0 -140,-2 -158,-20 -11,-11 -20,-31 -20,-45 0,-23 4,-25 43,-25 h 42 l -26,-23 c -15,-12 -32,-38 -38,-57 -10,-29 -9,-37 4,-46 20,-15 9,-22 -30,-19 -50,4 -51,5 -26,18 14,7 31,30 40,55 18,51 10,61 -49,62 l -35,1 31,13 c 31,14 52,55 39,76 -7,11 -273,14 -300,4 -19,-8 -48,-61 -40,-74 3,-6 21,-10 38,-10 l 32,-1 -27,-14 c -34,-19 -69,-102 -47,-116 8,-5 12,-9 9,-9 -61,-10 -117,1 -68,13 16,4 31,22 46,53 26,53 21,63 -33,65 l -30,1 31,9 c 32,9 62,57 49,78 -6,11 -277,15 -303,4 z m 2701,-85 c 22,-17 21,-18 -28,-17 -48,0 -49,1 -27,16 12,8 23,25 23,37 1,20 2,20 6,1 3,-11 15,-28 26,-37 z m -1708,12 c 3,-5 27,-10 53,-10 41,-1 45,-2 30,-14 -10,-7 -25,-33 -33,-57 -14,-39 -14,-45 0,-55 24,-18 18,-24 -25,-24 -41,0 -54,14 -22,24 11,4 23,24 30,53 15,56 9,62 -58,63 -44,1 -44,1 -20,15 30,17 37,18 45,5 z m 675,1 c 0,-5 8,-12 18,-14 9,-3 -5,-5 -33,-6 -48,-1 -49,0 -25,13 31,17 40,19 40,7 z m -227,-29 c -12,-9 -26,-35 -32,-57 -16,-60 -5,-65 169,-65 102,0 151,4 162,13 23,18 33,96 13,103 -29,12 -15,24 28,24 41,0 42,-1 21,-18 -14,-11 -24,-33 -27,-60 -7,-55 6,-62 120,-64 48,-1 70,-3 48,-5 -22,-3 -45,-9 -52,-15 -19,-15 -17,-108 1,-108 8,0 18,-4 21,-10 4,-6 -15,-10 -49,-10 -55,0 -78,15 -34,22 18,2 24,12 30,48 5,25 6,51 3,58 -3,9 -48,12 -175,12 h -170 l -10,-26 c -15,-39 -13,-94 4,-94 8,0 18,-4 21,-10 4,-6 -15,-10 -49,-10 -31,0 -56,5 -56,10 0,6 9,10 19,10 26,0 31,9 38,70 l 6,50 -84,1 c -81,1 -83,1 -52,15 27,11 33,20 39,59 5,38 3,48 -12,60 -17,13 -14,14 31,14 49,1 50,0 28,-17 z M 4018,3811 c 10,-6 9,-10 -7,-14 -30,-7 -67,3 -49,14 7,5 20,9 28,9 8,0 21,-4 28,-9 z m 387,-1 c 3,-5 -3,-10 -15,-10 -15,0 -26,-12 -41,-47 -28,-64 -28,-65 1,-73 l 25,-7 -28,-8 c -15,-4 -49,-3 -75,1 l -47,8 37,4 c 33,3 39,8 61,55 21,44 23,54 11,63 -7,6 -11,14 -7,17 10,11 71,8 78,-3 z m 372,-4 c 4,-3 -1,-6 -11,-6 -10,0 -24,-17 -36,-46 -24,-55 -25,-74 -5,-74 8,0 15,-4 15,-10 0,-13 -87,-13 -95,-1 -3,5 5,11 17,13 24,3 41,32 53,86 5,27 4,32 -12,32 -15,0 -16,2 -3,10 15,9 66,7 77,-4 z m 376,-3 c -28,-6 -38,-19 -51,-72 -9,-39 -9,-44 9,-48 36,-10 19,-23 -31,-23 -27,0 -50,5 -50,10 0,6 9,10 20,10 14,0 22,11 30,41 6,22 14,47 17,55 3,8 -4,17 -18,23 -19,8 -11,10 36,9 33,0 50,-3 38,-5 z m 870,0 c -7,-2 -19,-2 -25,0 -7,3 -2,5 12,5 14,0 19,-2 13,-5 z"
       id="path9"
       style="fill:#ff3c5f;fill-opacity:1" /><path
       d="m 7657,4022 c -14,-21 7,-65 37,-77 30,-13 28,-14 -44,-17 l -75,-3 3,-30 c 2,-16 9,-41 15,-55 l 12,-25 h 165 c 157,0 165,1 168,20 5,36 -30,89 -63,96 -22,5 -13,7 32,8 40,1 67,6 76,16 13,12 17,12 27,0 6,-8 28,-16 48,-18 20,-2 2,-4 -40,-5 -42,-1 -79,-6 -82,-11 -8,-12 13,-72 32,-93 13,-16 35,-18 173,-18 90,0 160,4 164,10 3,5 -5,31 -17,57 -22,46 -25,48 -73,53 -48,4 -47,4 25,10 84,6 96,18 59,63 l -21,28 -146,-3 -147,-3 2,-25 c 3,-24 2,-24 -9,-5 -6,11 -16,23 -22,27 -15,10 -293,10 -299,0 z m 486,-89 c -7,-2 -21,-2 -30,0 -10,3 -4,5 12,5 17,0 24,-2 18,-5 z"
       id="path10"
       style="fill:#ff3c5f;fill-opacity:1" /><path
       d="m 8315,4020 c -12,-19 25,-69 58,-79 30,-9 29,-9 -20,-10 -28,-1 -54,-5 -58,-10 -9,-15 25,-90 46,-101 23,-13 686,-13 693,-1 3,5 -6,30 -20,55 -18,33 -35,48 -57,55 -29,8 -30,9 -6,10 14,1 29,5 35,9 5,5 25,3 44,-4 34,-12 34,-13 8,-13 -36,-1 -35,-16 2,-74 l 30,-47 h 165 c 125,0 165,3 165,13 0,6 -16,33 -35,60 -27,36 -42,47 -63,48 -27,0 -27,0 -3,10 23,9 23,10 6,37 -32,50 -40,52 -186,52 -79,0 -140,-4 -144,-10 -3,-5 -1,-20 6,-32 9,-16 3,-14 -18,10 l -31,32 h -140 c -78,0 -143,-4 -147,-9 -10,-18 19,-64 50,-77 29,-13 27,-13 -35,-13 -42,1 -56,3 -40,8 33,9 36,31 10,64 l -21,27 h -144 c -82,0 -146,-4 -150,-10 z"
       id="path11"
       style="fill:#ff3c5f;fill-opacity:1" /><path
       d="m 6247,3793 c -4,-3 -7,-30 -7,-59 0,-64 -1,-64 180,-64 179,0 180,1 180,59 0,26 -5,52 -12,59 -13,13 -329,18 -341,5 z"
       id="path12"
       style="fill:#ff3c5f;fill-opacity:1" /><path
       d="m 6617,3793 c -4,-3 -7,-26 -7,-49 0,-70 9,-74 181,-74 83,0 159,4 169,10 15,8 17,18 13,52 -3,24 -10,49 -16,56 -7,9 -54,12 -172,12 -89,0 -165,-3 -168,-7 z"
       id="path13"
       style="fill:#ff3c5f;fill-opacity:1" /><path
       d="m 6986,3791 c -7,-10 8,-99 19,-109 9,-9 290,-15 323,-7 23,6 24,10 19,50 -8,75 -8,75 -193,75 -89,0 -165,-4 -168,-9 z"
       id="path14"
       style="fill:#ff3c5f;fill-opacity:1" /><path
       d="m 7363,3748 c 4,-33 13,-58 24,-65 20,-15 309,-18 332,-4 15,10 8,63 -15,99 -14,21 -19,22 -181,22 h -166 z"
       id="path15"
       style="fill:#ff3c5f;fill-opacity:1" /><path
       d="m 7730,3776 c 0,-37 20,-86 40,-96 22,-12 310,-13 328,-2 16,11 -10,90 -35,110 -12,8 -64,12 -175,12 h -158 z"
       id="path16"
       style="fill:#ff3c5f;fill-opacity:1" /><path
       d="m 8096,3791 c -11,-18 29,-103 52,-112 33,-13 319,-11 327,1 10,16 -25,100 -46,110 -22,13 -326,13 -333,1 z"
       id="path17"
       style="fill:#ff3c5f;fill-opacity:1" /><path
       d="m 8494,3786 c -3,-8 3,-34 14,-59 22,-50 40,-57 142,-57 h 58 l 32,-67 c 36,-77 42,-83 92,-83 28,0 36,-4 32,-14 -6,-15 41,-116 60,-128 13,-9 350,-11 359,-2 10,10 -56,123 -76,130 -12,4 -16,12 -12,24 8,27 -122,249 -153,261 -13,5 -140,9 -283,9 -216,0 -261,-2 -265,-14 z"
       id="path18"
       style="fill:#ff3c5f;fill-opacity:1" /><path
       d="m 9092,3793 c -9,-4 -6,-17 14,-51 14,-26 34,-53 42,-59 19,-16 327,-18 337,-4 9,16 -53,108 -78,115 -27,7 -297,7 -315,-1 z"
       id="path19"
       style="fill:#ff3c5f;fill-opacity:1" /><path
       d="m 6037,3653 c -4,-3 -7,-33 -7,-65 v -58 l 183,2 182,3 3,54 c 2,37 -1,57 -10,62 -15,10 -342,12 -351,2 z"
       id="path20"
       style="fill:#ff3c5f;fill-opacity:1" /><path
       d="m 6427,3654 c -4,-4 -7,-31 -7,-61 0,-42 4,-55 17,-60 31,-12 331,-9 343,3 8,8 9,28 3,65 l -8,54 -171,3 c -93,1 -173,-1 -177,-4 z"
       id="path21"
       style="fill:#ff3c5f;fill-opacity:1" /><path
       d="m 6803,3645 c -8,-22 3,-95 16,-108 14,-14 304,-19 337,-6 22,8 23,13 17,56 -3,26 -10,54 -16,61 -7,9 -55,12 -179,12 -143,0 -170,-2 -175,-15 z"
       id="path22"
       style="fill:#ff3c5f;fill-opacity:1" /><path
       d="m 7194,3652 c -14,-8 -3,-97 14,-114 14,-14 337,-17 351,-3 11,11 -3,91 -21,112 -8,10 -52,13 -172,13 -88,0 -166,-4 -172,-8 z"
       id="path23"
       style="fill:#ff3c5f;fill-opacity:1" /><path
       d="m 7573,3649 c -13,-13 3,-87 23,-108 10,-11 49,-15 165,-17 83,-1 162,1 175,6 23,9 23,10 7,57 -8,26 -23,54 -31,61 -20,16 -323,17 -339,1 z"
       id="path24"
       style="fill:#ff3c5f;fill-opacity:1" /><path
       d="m 7955,3649 c -10,-15 14,-96 33,-111 17,-14 334,-19 348,-6 10,11 -17,89 -38,110 -16,16 -39,18 -177,18 -104,0 -162,-4 -166,-11 z"
       id="path25"
       style="fill:#ff3c5f;fill-opacity:1" /><path
       d="m 8328,3648 c -3,-7 5,-36 18,-65 23,-51 24,-51 76,-58 67,-8 294,-3 304,8 10,10 -36,106 -57,118 -28,15 -336,12 -341,-3 z"
       id="path26"
       style="fill:#ff3c5f;fill-opacity:1" /><path
       d="m 9170,3643 c 0,-10 14,-39 30,-65 28,-45 30,-46 92,-53 72,-8 284,-2 293,7 8,7 -49,96 -73,116 -11,8 -63,12 -179,12 -149,0 -163,-2 -163,-17 z"
       id="path27"
       style="fill:#ff3c5f;fill-opacity:1" /><path
       d="m 3357,3512 c -35,-3 -42,-9 -77,-64 -22,-33 -37,-64 -34,-69 3,-5 104,-9 224,-9 168,0 222,3 232,13 18,18 63,116 56,122 -6,6 -342,12 -401,7 z"
       id="path28"
       style="fill:#ff3c5f;fill-opacity:1" /><path
       d="m 3792,3498 c -20,-26 -61,-116 -55,-122 8,-8 347,-8 368,0 18,7 68,111 59,125 -9,15 -360,11 -372,-3 z"
       id="path29"
       style="fill:#ff3c5f;fill-opacity:1" /><path
       d="m 4204,3502 c -13,-8 -54,-98 -54,-118 0,-12 32,-14 188,-12 l 187,3 17,35 c 10,20 21,50 24,68 l 7,32 h -179 c -99,0 -184,-4 -190,-8 z"
       id="path30"
       style="fill:#ff3c5f;fill-opacity:1" /><path
       d="m 4596,3488 c -20,-33 -38,-96 -31,-108 10,-16 360,-13 372,3 15,19 43,108 37,118 -3,5 -86,9 -184,9 -175,0 -180,-1 -194,-22 z"
       id="path31"
       style="fill:#ff3c5f;fill-opacity:1" /><path
       d="m 4995,3476 c -8,-19 -16,-50 -17,-68 l -3,-33 170,-3 c 94,-1 179,0 191,2 17,5 24,18 32,62 7,31 9,60 6,65 -3,5 -86,9 -185,9 h -180 z"
       id="path32"
       style="fill:#ff3c5f;fill-opacity:1" /><path
       d="m 5407,3503 c -11,-20 -28,-113 -22,-123 7,-12 353,-14 372,-2 6,4 13,34 15,67 l 3,60 -182,3 c -100,1 -184,-1 -186,-5 z"
       id="path33"
       style="fill:#ff3c5f;fill-opacity:1" /><path
       d="m 5805,3498 c -2,-7 -6,-38 -7,-68 l -3,-55 179,-3 c 126,-2 183,1 193,9 10,9 13,29 11,68 l -3,56 -183,3 c -141,2 -183,0 -187,-10 z"
       id="path34"
       style="fill:#ff3c5f;fill-opacity:1" /><path
       d="m 6204,3497 c -3,-8 -4,-39 -2,-68 l 3,-54 h 185 185 v 65 65 l -183,3 c -148,2 -183,0 -188,-11 z"
       id="path35"
       style="fill:#ff3c5f;fill-opacity:1" /><path
       d="m 6607,3503 c -13,-12 -7,-110 7,-122 9,-8 69,-11 192,-9 l 179,3 -4,55 c -1,30 -8,61 -13,68 -8,9 -57,12 -183,12 -94,0 -175,-3 -178,-7 z"
       id="path36"
       style="fill:#ff3c5f;fill-opacity:1" /><path
       d="m 7005,3499 c -4,-6 -4,-35 0,-65 5,-44 10,-55 28,-59 12,-3 96,-4 187,-3 l 165,3 -2,46 c -2,90 1,89 -198,89 -113,0 -176,-4 -180,-11 z"
       id="path37"
       style="fill:#ff3c5f;fill-opacity:1" /><path
       d="m 7404,3495 c -7,-18 3,-81 17,-107 9,-16 28,-18 189,-18 98,0 181,4 184,9 8,12 -24,114 -38,123 -6,4 -87,8 -179,8 -140,0 -169,-2 -173,-15 z"
       id="path38"
       style="fill:#ff3c5f;fill-opacity:1" /><path
       d="m 7796,3502 c -3,-5 2,-35 11,-66 12,-42 21,-58 37,-62 12,-2 95,-3 186,-2 l 165,3 -2,26 c -1,14 -10,43 -20,65 l -18,39 -177,3 c -97,1 -179,-1 -182,-6 z"
       id="path39"
       style="fill:#ff3c5f;fill-opacity:1" /><path
       d="m 8194,3478 c 3,-18 14,-48 24,-68 l 17,-35 319,-3 c 176,-1 323,1 328,6 7,7 -29,90 -53,118 -9,11 -70,14 -326,14 h -315 z"
       id="path40"
       style="fill:#ff3c5f;fill-opacity:1" /><path
       d="m 9255,3500 c -7,-11 40,-99 63,-117 18,-15 357,-19 366,-5 5,9 -59,112 -78,124 -17,12 -344,10 -351,-2 z"
       id="path41"
       style="fill:#ff3c5f;fill-opacity:1" /><path
       d="m 3325,3352 c -38,-1 -80,-4 -92,-7 -21,-5 -93,-109 -93,-134 0,-8 97,-11 344,-11 h 345 l 19,24 c 19,25 57,114 51,121 -5,4 -485,11 -574,7 z"
       id="path42"
       style="fill:#ff3c5f;fill-opacity:1" /><path
       d="m 4858,3350 c -53,-3 -99,-8 -102,-11 -3,-3 -15,-32 -25,-65 -15,-44 -17,-60 -8,-66 22,-14 373,-10 384,5 6,6 16,36 23,65 9,41 10,56 1,65 -13,13 -111,15 -273,7 z"
       id="path43"
       style="fill:#ff3c5f;fill-opacity:1" /><path
       d="m 5190,3351 c -20,-6 -27,-17 -38,-64 -8,-31 -12,-64 -8,-72 5,-13 129,-15 1043,-15 590,0 1044,4 1052,9 12,8 12,19 2,67 -6,32 -15,61 -19,65 -9,9 -1999,18 -2032,10 z"
       id="path44"
       style="fill:#ff3c5f;fill-opacity:1" /><path
       d="m 8568,3353 c -34,-5 -34,-6 -6,-78 15,-39 29,-60 45,-66 31,-11 343,-12 362,0 11,7 7,21 -21,72 -27,51 -40,65 -64,70 -32,7 -273,8 -316,2 z"
       id="path45"
       style="fill:#ff3c5f;fill-opacity:1" /><path
       d="m 8958,3353 c -24,-6 -23,-16 13,-83 19,-36 39,-60 52,-64 34,-9 340,-7 355,3 23,14 -57,134 -94,142 -33,8 -300,9 -326,2 z"
       id="path46"
       style="fill:#ff3c5f;fill-opacity:1" /><path
       d="m 9358,3353 c -24,-6 -24,-6 17,-78 22,-40 43,-65 57,-69 34,-9 341,-7 355,2 9,6 0,26 -31,74 -39,57 -49,66 -83,71 -42,8 -288,7 -315,0 z"
       id="path47"
       style="fill:#ff3c5f;fill-opacity:1" /><path
       d="m 3933,3342 c -18,-11 -65,-120 -58,-132 7,-12 364,-14 382,-2 15,10 63,124 56,134 -6,10 -364,10 -380,0 z"
       id="path48"
       style="fill:#ff3c5f;fill-opacity:1" /><path
       d="m 4343,3338 c -17,-23 -53,-120 -47,-129 9,-15 367,-11 386,4 19,15 52,112 43,127 -10,16 -370,13 -382,-2 z"
       id="path49"
       style="fill:#ff3c5f;fill-opacity:1" /><path
       d="m 7256,3341 c -9,-13 14,-125 27,-133 7,-4 92,-8 190,-8 147,0 179,3 183,15 8,20 -14,118 -29,127 -17,11 -365,10 -371,-1 z"
       id="path50"
       style="fill:#ff3c5f;fill-opacity:1" /><path
       d="m 7665,3340 c -10,-17 15,-113 33,-127 18,-15 348,-18 370,-5 9,7 9,20 -4,63 -9,30 -21,60 -26,67 -13,16 -363,18 -373,2 z"
       id="path51"
       style="fill:#ff3c5f;fill-opacity:1" /><path
       d="m 8066,3341 c -3,-4 4,-36 15,-69 15,-44 26,-62 42,-66 12,-3 113,-6 225,-6 172,0 204,2 208,15 7,17 -32,116 -50,127 -16,11 -434,10 -440,-1 z"
       id="path52"
       style="fill:#ff3c5f;fill-opacity:1" /><path
       d="m 5823,2933 c -19,-3 -34,-11 -37,-21 -2,-9 -14,-60 -25,-112 -12,-52 -29,-131 -39,-176 l -19,-81 276,-6 c 273,-7 1301,-10 1301,-4 0,5 -39,179 -65,287 -13,58 -25,108 -25,113 0,7 -1307,7 -1367,0 z"
       id="path53"
       style="fill:#ff3c5f;fill-opacity:1" /></g><g
     style="display:none;fill:none"
     id="g11"
     transform="matrix(36.263175,0,0,36.263175,184.1597,-123.88069)"><path
       d="m 19,9 c 0,1.45 -0.43,2.78 -1.17,3.89 -1.08,1.6 -2.79,2.73 -4.78,3.02 C 12.71,15.97 12.36,16 12,16 11.64,16 11.29,15.97 10.95,15.91 8.96,15.62 7.25,14.49 6.17,12.89 5.43,11.78 5,10.45 5,9 5,5.13 8.13,2 12,2 c 3.87,0 7,3.13 7,7 z"
       stroke="#292d32"
       stroke-width="1.5"
       stroke-linecap="round"
       stroke-linejoin="round"
       id="path1" /><path
       d="m 21.25,18.47 -1.65,0.39 c -0.37,0.09 -0.66,0.37 -0.74,0.74 l -0.35,1.47 c -0.19,0.8 -1.21,1.04 -1.74,0.41 L 12,16 7.22996,21.49 c -0.53,0.63 -1.55,0.39 -1.74,-0.41 l -0.35,-1.47 c -0.09,-0.37 -0.38,-0.66 -0.74,-0.74 l -1.65,-0.39 c -0.76,-0.18 -1.03,-1.13 -0.48,-1.68 l 3.9,-3.9 c 1.08,1.6 2.79,2.73 4.78004,3.02 0.34,0.06 0.69,0.09 1.05,0.09 0.36,0 0.71,-0.03 1.05,-0.09 1.99,-0.29 3.7,-1.42 4.78,-3.02 l 3.9,3.9 c 0.55,0.54 0.28,1.49 -0.48,1.67 z"
       stroke="#292d32"
       stroke-width="1.5"
       stroke-linecap="round"
       stroke-linejoin="round"
       id="path2" /><path
       d="m 12.58,5.98 0.59,1.17999 c 0.08,0.16 0.29,0.32001 0.48,0.35001 l 1.07,0.17999 C 15.4,7.79999 15.56,8.3 15.07,8.79 L 14.24,9.61998 C 14.1,9.75998 14.02,10.03 14.07,10.23 l 0.24,1.03 c 0.19,0.81 -0.24,1.13 -0.96,0.7 l -1,-0.59 c -0.18,-0.11 -0.48,-0.11 -0.66,0 l -1,0.59 c -0.72003,0.42 -1.15003,0.11 -0.96003,-0.7 l 0.24,-1.03 C 10.01,10.04 9.93997,9.75998 9.79997,9.61998 L 8.96997,8.79 c -0.49,-0.49 -0.33,-0.98001 0.35,-1.10001 L 10.39,7.51 C 10.57,7.48 10.78,7.31999 10.86,7.15999 L 11.45,5.98 c 0.29,-0.64 0.81,-0.64 1.13,0 z"
       stroke="#292d32"
       stroke-width="1.5"
       stroke-linecap="round"
       stroke-linejoin="round"
       id="path3" /></g></svg>
